{"title":"Dark Secrets S01E07 - Deadly Silence x264","uid":13363232,"size":150969816,"categoryP":"video","categoryS":"tv_shows","magnet":"?xt=urn:btih:8b3915529502b2cda8f010aefbd00ec96df2ea47&amp;dn=Dark+Secrets+S01E07+-+Deadly+Silence+x264&amp;tr=udp%3A%2F%2Ftracker.leechers-paradise.org%3A6969&amp;tr=udp%3A%2F%2Fzer0day.ch%3A1337&amp;tr=udp%3A%2F%2Fopen.demonii.com%3A1337&amp;tr=udp%3A%2F%2Ftracker.coppersurfer.tk%3A6969&amp;tr=udp%3A%2F%2Fexodus.desync.com%3A6969","seeders":0,"leechers":1,"uploader":"Pyre8Storm","files":1,"time":1454148452,"description":"Dark Secrets - S01E07 - Deadly Silence\r\n\r\nResidents of an apartment building are the victims of a strange attack; while there are many theories, an amateur investigator discovers a secret plan. \r\n\r\nSCI-FI\r\n\r\nIMDb:\r\n \nhttp://www.imdb.com/title/tt3173042/?ref_=ttep_ep7\r\n\r\nScreens:\r\n \nhttp://extraimago.com/image/uTp\r\n\r\nFormat                                   : MPEG-4\r\nFormat profile                           : Base Media / Version 2\r\nCodec ID                                 : mp42\r\nFile size                                : 144 MiB\r\nDuration                                 : 23mn 1s\r\nOverall bit rate                         : 874 Kbps\r\nEncoded date                             : UTC 2016-01-30 07:49:09\r\nTagged date                              : UTC 2016-01-30 08:05:30\r\n\r\nVideo\r\n\r\nFormat                                   : AVC\r\nCodec ID/Info                            : Advanced Video Coding\r\nDuration                                 : 23mn 1s\r\nBit rate                                 : 744 Kbps\r\nWidth                                    : 852 pixels\r\nHeight                                   : 480 pixels\r\nDisplay aspect ratio                     : 16:9\r\nFrame rate mode                          : Variable\r\nFrame rate                               : 25.000 fps\r\nMinimum frame rate                       : 2.778 fps\r\nMaximum frame rate                       : 25.000 fps\r\nColor space                              : YUV\r\nChroma subsampling                       : 4:2:0\r\nBit depth                                : 8 bits\r\nScan type                                : Progressive\r\nBits/(Pixel*Frame)                       : 0.073\r\nStream size                              : 122 MiB (85%)\r\n\r\nAudio\r\nID                                       : 2\r\nFormat                                   : AC-3\r\nFormat/Info                              : Audio Coding 3\r\nCodec ID                                 : ac-3\r\nDuration                                 : 23mn 1s\r\nBit rate                                 : 128 Kbps\r\nChannel(s)                               : 2 channels\r\nChannel positions                        : Front: L R\r\nSampling rate                            : 48.0 KHz\r\nBit depth                                : 16 bits\r\nCompression mode                         : Lossy\r\nStream size                              : 21.1 MiB (15%)\r\nTitle                                    : Stereo\r\n\r\nPlease seed for others","torrent":{"xt":"urn:btih:8b3915529502b2cda8f010aefbd00ec96df2ea47","amp;dn":"Dark+Secrets+S01E07+-+Deadly+Silence+x264","amp;tr":["udp%3A%2F%2Ftracker.leechers-paradise.org%3A6969","udp%3A%2F%2Fzer0day.ch%3A1337","udp%3A%2F%2Fopen.demonii.com%3A1337","udp%3A%2F%2Ftracker.coppersurfer.tk%3A6969","udp%3A%2F%2Fexodus.desync.com%3A6969"],"infoHash":"8b3915529502b2cda8f010aefbd00ec96df2ea47","infoHashBuffer":{"type":"Buffer","data":[139,57,21,82,149,2,178,205,168,240,16,174,251,208,14,201,109,242,234,71]},"announce":[],"urlList":[]}}